<svg width="642" height="81" viewBox="0 0 642 81" fill="none" xmlns="http://www.w3.org/2000/svg">
<g clip-path="url(#clip0_1_125)">
<path d="M17.5284 52V22.9091H29.1761C31.3163 22.9091 33.1013 23.2263 34.5312 23.8608C35.9612 24.4953 37.036 25.3759 37.7557 26.5028C38.4754 27.6203 38.8352 28.9081 38.8352 30.3665C38.8352 31.5028 38.608 32.5019 38.1534 33.3636C37.6989 34.2159 37.0739 34.9167 36.2784 35.4659C35.4924 36.0057 34.5928 36.3892 33.5795 36.6165V36.9006C34.6875 36.9479 35.7244 37.2604 36.6903 37.8381C37.6657 38.4157 38.4564 39.2254 39.0625 40.267C39.6686 41.2992 39.9716 42.5303 39.9716 43.9602C39.9716 45.5038 39.5881 46.8816 38.821 48.0938C38.0634 49.2964 36.9413 50.2481 35.4545 50.9489C33.9678 51.6496 32.1354 52 29.9574 52H17.5284ZM23.679 46.9716H28.6932C30.4072 46.9716 31.6572 46.6449 32.4432 45.9915C33.2292 45.3286 33.6222 44.4479 33.6222 43.3494C33.6222 42.5445 33.428 41.8343 33.0398 41.2188C32.6515 40.6032 32.0975 40.1203 31.3778 39.7699C30.6676 39.4195 29.8201 39.2443 28.8352 39.2443H23.679V46.9716ZM23.679 35.0824H28.2386C29.0814 35.0824 29.8295 34.9356 30.483 34.642C31.1458 34.339 31.6667 33.9129 32.0455 33.3636C32.4337 32.8144 32.6278 32.1562 32.6278 31.3892C32.6278 30.3381 32.2538 29.4905 31.5057 28.8466C30.767 28.2027 29.7159 27.8807 28.3523 27.8807H23.679V35.0824ZM48.9879 52H42.397L52.4396 22.9091H60.3658L70.3942 52H63.8033L56.5163 29.5568H56.2891L48.9879 52ZM48.576 40.5653H64.1442V45.3665H48.576V40.5653ZM89.0128 31.2756C88.8991 30.1297 88.4115 29.2396 87.5497 28.6051C86.688 27.9706 85.5185 27.6534 84.0412 27.6534C83.0374 27.6534 82.1899 27.7955 81.4986 28.0795C80.8073 28.3542 80.277 28.7377 79.9077 29.2301C79.5478 29.7225 79.3679 30.2812 79.3679 30.9062C79.349 31.4271 79.4579 31.8816 79.6946 32.2699C79.9408 32.6581 80.277 32.9943 80.7031 33.2784C81.1293 33.553 81.6217 33.7945 82.1804 34.0028C82.7391 34.2017 83.3357 34.3722 83.9702 34.5142L86.5838 35.1392C87.8527 35.4233 89.0175 35.8021 90.0781 36.2756C91.1387 36.7491 92.0573 37.3314 92.8338 38.0227C93.6103 38.714 94.2116 39.5284 94.6378 40.4659C95.0734 41.4034 95.2959 42.4782 95.3054 43.6903C95.2959 45.4706 94.8414 47.0142 93.9418 48.321C93.0516 49.6184 91.7637 50.6269 90.0781 51.3466C88.402 52.0568 86.3802 52.4119 84.0128 52.4119C81.6643 52.4119 79.6188 52.0521 77.8764 51.3324C76.1435 50.6127 74.7893 49.5473 73.8139 48.1364C72.848 46.7159 72.3414 44.9593 72.294 42.8665H78.2457C78.312 43.8419 78.5914 44.6562 79.0838 45.3097C79.5857 45.9536 80.2533 46.4413 81.0866 46.7727C81.9295 47.0947 82.8812 47.2557 83.9418 47.2557C84.9834 47.2557 85.8878 47.1042 86.6548 46.8011C87.4313 46.4981 88.0327 46.0767 88.4588 45.5369C88.8849 44.9972 89.098 44.3769 89.098 43.6761C89.098 43.0227 88.9039 42.4735 88.5156 42.0284C88.1368 41.5833 87.5781 41.2045 86.8395 40.892C86.1103 40.5795 85.2154 40.2955 84.1548 40.0398L80.9872 39.2443C78.5346 38.6477 76.598 37.715 75.1776 36.446C73.7571 35.1771 73.0516 33.4678 73.0611 31.3182C73.0516 29.5568 73.5204 28.018 74.4673 26.7017C75.4238 25.3854 76.7353 24.358 78.402 23.6193C80.0687 22.8807 81.9626 22.5114 84.0838 22.5114C86.2429 22.5114 88.1274 22.8807 89.7372 23.6193C91.3565 24.358 92.616 25.3854 93.5156 26.7017C94.4152 28.018 94.8793 29.5426 94.9077 31.2756H89.0128ZM99.4425 52V22.9091H119.045V27.9801H105.593V34.9119H118.036V39.983H105.593V46.929H119.102V52H99.4425ZM123.935 52V22.9091H130.085V46.929H142.557V52H123.935ZM155.888 52V22.9091H162.038V34.9119H174.524V22.9091H180.661V52H174.524V39.983H162.038V52H155.888ZM190.746 52H184.155L194.197 22.9091H202.124L212.152 52H205.561L198.274 29.5568H198.047L190.746 52ZM190.334 40.5653H205.902V45.3665H190.334V40.5653ZM215.653 22.9091H223.239L231.25 42.4545H231.591L239.602 22.9091H247.188V52H241.222V33.0653H240.98L233.452 51.858H229.389L221.861 32.9943H221.619V52H215.653V22.9091ZM278.988 37.4545C278.988 40.6269 278.387 43.3258 277.184 45.5511C275.991 47.7765 274.362 49.4763 272.298 50.6506C270.243 51.8153 267.932 52.3977 265.366 52.3977C262.781 52.3977 260.46 51.8106 258.406 50.6364C256.351 49.4621 254.727 47.7623 253.533 45.5369C252.34 43.3116 251.744 40.6174 251.744 37.4545C251.744 34.2822 252.34 31.5833 253.533 29.358C254.727 27.1326 256.351 25.4375 258.406 24.2727C260.46 23.0985 262.781 22.5114 265.366 22.5114C267.932 22.5114 270.243 23.0985 272.298 24.2727C274.362 25.4375 275.991 27.1326 277.184 29.358C278.387 31.5833 278.988 34.2822 278.988 37.4545ZM272.752 37.4545C272.752 35.3996 272.444 33.6667 271.829 32.2557C271.223 30.8447 270.366 29.7746 269.258 29.0455C268.15 28.3163 266.853 27.9517 265.366 27.9517C263.879 27.9517 262.582 28.3163 261.474 29.0455C260.366 29.7746 259.504 30.8447 258.888 32.2557C258.282 33.6667 257.979 35.3996 257.979 37.4545C257.979 39.5095 258.282 41.2424 258.888 42.6534C259.504 44.0644 260.366 45.1345 261.474 45.8636C262.582 46.5928 263.879 46.9574 265.366 46.9574C266.853 46.9574 268.15 46.5928 269.258 45.8636C270.366 45.1345 271.223 44.0644 271.829 42.6534C272.444 41.2424 272.752 39.5095 272.752 37.4545ZM301.513 22.9091H307.663V41.8011C307.663 43.9223 307.157 45.7784 306.143 47.3693C305.14 48.9602 303.733 50.2008 301.925 51.0909C300.116 51.9716 298.009 52.4119 295.604 52.4119C293.189 52.4119 291.077 51.9716 289.268 51.0909C287.46 50.2008 286.054 48.9602 285.05 47.3693C284.046 45.7784 283.544 43.9223 283.544 41.8011V22.9091H289.695V41.2756C289.695 42.3835 289.936 43.3684 290.419 44.2301C290.911 45.0919 291.603 45.7689 292.493 46.2614C293.383 46.7538 294.42 47 295.604 47C296.797 47 297.834 46.7538 298.714 46.2614C299.605 45.7689 300.291 45.0919 300.774 44.2301C301.267 43.3684 301.513 42.3835 301.513 41.2756V22.9091ZM323.036 52H312.724V22.9091H323.121C326.048 22.9091 328.567 23.4915 330.678 24.6562C332.79 25.8116 334.414 27.4735 335.55 29.642C336.696 31.8106 337.269 34.4053 337.269 37.4261C337.269 40.4564 336.696 43.0606 335.55 45.2386C334.414 47.4167 332.781 49.0881 330.65 50.2528C328.529 51.4176 325.991 52 323.036 52ZM318.874 46.7301H322.781C324.599 46.7301 326.128 46.4081 327.369 45.7642C328.619 45.1108 329.556 44.1023 330.181 42.7386C330.816 41.3655 331.133 39.5947 331.133 37.4261C331.133 35.2765 330.816 33.5199 330.181 32.1562C329.556 30.7926 328.623 29.7888 327.383 29.1449C326.142 28.5009 324.613 28.179 322.795 28.179H318.874V46.7301ZM352.479 26.0341V22.9091H374.297V26.0341H365.149V52H361.626V26.0341H352.479ZM379.734 52V22.9091H389.563C391.836 22.9091 393.701 23.2973 395.16 24.0739C396.618 24.8409 397.698 25.8968 398.398 27.2415C399.099 28.5862 399.45 30.1155 399.45 31.8295C399.45 33.5436 399.099 35.0634 398.398 36.3892C397.698 37.715 396.623 38.7566 395.174 39.5142C393.725 40.2623 391.874 40.6364 389.62 40.6364H381.665V37.4545H389.506C391.059 37.4545 392.309 37.2273 393.256 36.7727C394.213 36.3182 394.904 35.6742 395.33 34.8409C395.766 33.9981 395.984 32.9943 395.984 31.8295C395.984 30.6648 395.766 29.6468 395.33 28.7756C394.895 27.9044 394.199 27.232 393.242 26.7585C392.286 26.2756 391.022 26.0341 389.45 26.0341H383.256V52H379.734ZM393.427 38.9318L400.586 52H396.495L389.45 38.9318H393.427ZM406.513 52H402.82L413.501 22.9091H417.138L427.82 52H424.126L415.433 27.5114H415.206L406.513 52ZM407.876 40.6364H422.763V43.7614H407.876V40.6364ZM441.328 52H432.351V22.9091H441.726C444.548 22.9091 446.963 23.4915 448.97 24.6562C450.978 25.8116 452.517 27.4735 453.587 29.642C454.657 31.8011 455.192 34.3864 455.192 37.3977C455.192 40.428 454.652 43.0369 453.572 45.2244C452.493 47.4025 450.921 49.0786 448.857 50.2528C446.792 51.4176 444.283 52 441.328 52ZM435.874 48.875H441.101C443.506 48.875 445.5 48.411 447.081 47.483C448.662 46.5549 449.841 45.2339 450.618 43.5199C451.394 41.8059 451.783 39.7652 451.783 37.3977C451.783 35.0492 451.399 33.0275 450.632 31.3324C449.865 29.6278 448.719 28.321 447.195 27.4119C445.67 26.4934 443.771 26.0341 441.499 26.0341H435.874V48.875ZM464.624 22.9091V52H461.101V22.9091H464.624ZM494.755 22.9091V52H491.346L475.494 29.1591H475.21V52H471.687V22.9091H475.096L491.005 45.8068H491.289V22.9091H494.755ZM521.69 32C521.378 31.0436 520.966 30.1866 520.455 29.429C519.953 28.6619 519.351 28.0085 518.651 27.4688C517.959 26.929 517.173 26.517 516.293 26.233C515.412 25.9489 514.446 25.8068 513.395 25.8068C511.671 25.8068 510.104 26.2519 508.693 27.142C507.282 28.0322 506.16 29.3438 505.327 31.0767C504.493 32.8097 504.077 34.9356 504.077 37.4545C504.077 39.9735 504.498 42.0994 505.341 43.8324C506.184 45.5653 507.325 46.8769 508.764 47.767C510.204 48.6572 511.823 49.1023 513.622 49.1023C515.289 49.1023 516.757 48.7472 518.026 48.0369C519.304 47.3172 520.298 46.304 521.009 44.9972C521.728 43.6809 522.088 42.1326 522.088 40.3523L523.168 40.5795H514.418V37.4545H525.497V40.5795C525.497 42.9754 524.986 45.0587 523.963 46.8295C522.95 48.6004 521.548 49.9735 519.759 50.9489C517.978 51.9148 515.933 52.3977 513.622 52.3977C511.046 52.3977 508.783 51.7917 506.832 50.5795C504.891 49.3674 503.376 47.6439 502.287 45.4091C501.207 43.1742 500.668 40.5227 500.668 37.4545C500.668 35.1534 500.975 33.0843 501.591 31.2472C502.216 29.4006 503.097 27.8286 504.233 26.5312C505.369 25.2339 506.714 24.2396 508.267 23.5483C509.82 22.857 511.529 22.5114 513.395 22.5114C514.929 22.5114 516.359 22.7434 517.685 23.2074C519.02 23.6619 520.208 24.3106 521.25 25.1534C522.301 25.9867 523.177 26.9858 523.878 28.1506C524.579 29.3059 525.062 30.589 525.327 32H521.69ZM542.781 52V22.9091H560.337V26.0341H546.303V35.8636H559.428V38.9886H546.303V48.875H560.565V52H542.781ZM582.596 30.1818C582.425 28.7424 581.734 27.625 580.522 26.8295C579.31 26.0341 577.823 25.6364 576.062 25.6364C574.774 25.6364 573.647 25.8447 572.681 26.2614C571.725 26.678 570.977 27.2509 570.437 27.9801C569.906 28.7093 569.641 29.5379 569.641 30.4659C569.641 31.2424 569.826 31.91 570.195 32.4688C570.574 33.018 571.057 33.4773 571.644 33.8466C572.231 34.2064 572.847 34.5047 573.491 34.7415C574.135 34.9687 574.727 35.1534 575.266 35.2955L578.221 36.0909C578.978 36.2898 579.821 36.5644 580.749 36.9148C581.687 37.2652 582.582 37.7434 583.434 38.3494C584.296 38.946 585.006 39.7131 585.565 40.6506C586.123 41.5881 586.403 42.7386 586.403 44.1023C586.403 45.6742 585.991 47.0947 585.167 48.3636C584.353 49.6326 583.159 50.6411 581.587 51.3892C580.025 52.1373 578.126 52.5114 575.891 52.5114C573.808 52.5114 572.004 52.1752 570.479 51.5028C568.964 50.8305 567.771 49.893 566.9 48.6903C566.038 47.4877 565.55 46.0909 565.437 44.5H569.073C569.168 45.5985 569.537 46.5076 570.181 47.2273C570.835 47.9375 571.658 48.4678 572.653 48.8182C573.656 49.1591 574.736 49.3295 575.891 49.3295C577.236 49.3295 578.443 49.1117 579.513 48.6761C580.584 48.2311 581.431 47.6155 582.056 46.8295C582.681 46.0341 582.994 45.1061 582.994 44.0455C582.994 43.0795 582.724 42.2936 582.184 41.6875C581.644 41.0814 580.934 40.589 580.053 40.2102C579.173 39.8314 578.221 39.5 577.198 39.2159L573.619 38.1932C571.346 37.5398 569.547 36.607 568.221 35.3949C566.895 34.1828 566.232 32.5966 566.232 30.6364C566.232 29.0076 566.673 27.5871 567.553 26.375C568.443 25.1534 569.637 24.2064 571.133 23.5341C572.638 22.8523 574.319 22.5114 576.175 22.5114C578.05 22.5114 579.717 22.8475 581.175 23.5199C582.634 24.1828 583.789 25.0919 584.641 26.2472C585.503 27.4025 585.958 28.714 586.005 30.1818H582.596ZM590.604 26.0341V22.9091H612.422V26.0341H603.274V52H599.751V26.0341H590.604Z" fill="black"/>
</g>
<defs>
<clipPath id="clip0_1_125">
<rect width="642" height="81" fill="white"/>
</clipPath>
</defs>
</svg>
