<svg width="698" height="50" viewBox="0 0 698 50" fill="none" xmlns="http://www.w3.org/2000/svg">
<g clip-path="url(#clip0_2_178)">
<path d="M50.2661 25L40.1995 42.4357L20.0665 42.4357L10 25L20.0665 7.56426L40.1995 7.56426L50.2661 25Z" fill="url(#paint0_linear_2_178)"/>
<path d="M67 25L56.9335 42.4357L36.8005 42.4357L26.7339 25L36.8005 7.56426L56.9335 7.56426L67 25Z" fill="url(#paint1_linear_2_178)"/>
<mask id="mask0_2_178" style="mask-type:alpha" maskUnits="userSpaceOnUse" x="18" y="7" width="41" height="36">
<rect x="18.8899" y="7.48157" width="39.2202" height="3.66055" fill="#D9D9D9"/>
<rect x="18.89" y="14.0183" width="39.2202" height="3.39908" fill="#D9D9D9"/>
<rect x="18.89" y="20.2935" width="39.2202" height="3.66055" fill="#D9D9D9"/>
<rect x="18.89" y="26.8302" width="39.2202" height="3.39908" fill="#D9D9D9"/>
<rect x="18.89" y="33.1053" width="39.2202" height="3.66055" fill="#D9D9D9"/>
<rect x="18.89" y="38.8578" width="39.2202" height="3.66055" fill="#D9D9D9"/>
</mask>
<g mask="url(#mask0_2_178)">
<circle cx="39.2844" cy="24.9999" r="17.5183" fill="#111230"/>
</g>
<path d="M83.5284 39.5V10.4091H95.1761C97.3163 10.4091 99.1013 10.7263 100.531 11.3608C101.961 11.9953 103.036 12.8759 103.756 14.0028C104.475 15.1203 104.835 16.4081 104.835 17.8665C104.835 19.0028 104.608 20.0019 104.153 20.8636C103.699 21.7159 103.074 22.4167 102.278 22.9659C101.492 23.5057 100.593 23.8892 99.5795 24.1165V24.4006C100.688 24.4479 101.724 24.7604 102.69 25.3381C103.666 25.9157 104.456 26.7254 105.062 27.767C105.669 28.7992 105.972 30.0303 105.972 31.4602C105.972 33.0038 105.588 34.3816 104.821 35.5938C104.063 36.7964 102.941 37.7481 101.455 38.4489C99.9678 39.1496 98.1354 39.5 95.9574 39.5H83.5284ZM89.679 34.4716H94.6932C96.4072 34.4716 97.6572 34.1449 98.4432 33.4915C99.2292 32.8286 99.6222 31.9479 99.6222 30.8494C99.6222 30.0445 99.428 29.3343 99.0398 28.7188C98.6515 28.1032 98.0975 27.6203 97.3778 27.2699C96.6676 26.9195 95.8201 26.7443 94.8352 26.7443H89.679V34.4716ZM89.679 22.5824H94.2386C95.0814 22.5824 95.8295 22.4356 96.483 22.142C97.1458 21.839 97.6667 21.4129 98.0455 20.8636C98.4337 20.3144 98.6278 19.6562 98.6278 18.8892C98.6278 17.8381 98.2538 16.9905 97.5057 16.3466C96.767 15.7027 95.7159 15.3807 94.3523 15.3807H89.679V22.5824ZM114.988 39.5H108.397L118.44 10.4091H126.366L136.394 39.5H129.803L122.516 17.0568H122.289L114.988 39.5ZM114.576 28.0653H130.144V32.8665H114.576V28.0653ZM155.013 18.7756C154.899 17.6297 154.411 16.7396 153.55 16.1051C152.688 15.4706 151.518 15.1534 150.041 15.1534C149.037 15.1534 148.19 15.2955 147.499 15.5795C146.807 15.8542 146.277 16.2377 145.908 16.7301C145.548 17.2225 145.368 17.7812 145.368 18.4062C145.349 18.9271 145.458 19.3816 145.695 19.7699C145.941 20.1581 146.277 20.4943 146.703 20.7784C147.129 21.053 147.622 21.2945 148.18 21.5028C148.739 21.7017 149.336 21.8722 149.97 22.0142L152.584 22.6392C153.853 22.9233 155.018 23.3021 156.078 23.7756C157.139 24.2491 158.057 24.8314 158.834 25.5227C159.61 26.214 160.212 27.0284 160.638 27.9659C161.073 28.9034 161.296 29.9782 161.305 31.1903C161.296 32.9706 160.841 34.5142 159.942 35.821C159.052 37.1184 157.764 38.1269 156.078 38.8466C154.402 39.5568 152.38 39.9119 150.013 39.9119C147.664 39.9119 145.619 39.5521 143.876 38.8324C142.143 38.1127 140.789 37.0473 139.814 35.6364C138.848 34.2159 138.341 32.4593 138.294 30.3665H144.246C144.312 31.3419 144.591 32.1562 145.084 32.8097C145.586 33.4536 146.253 33.9413 147.087 34.2727C147.929 34.5947 148.881 34.7557 149.942 34.7557C150.983 34.7557 151.888 34.6042 152.655 34.3011C153.431 33.9981 154.033 33.5767 154.459 33.0369C154.885 32.4972 155.098 31.8769 155.098 31.1761C155.098 30.5227 154.904 29.9735 154.516 29.5284C154.137 29.0833 153.578 28.7045 152.839 28.392C152.11 28.0795 151.215 27.7955 150.155 27.5398L146.987 26.7443C144.535 26.1477 142.598 25.215 141.178 23.946C139.757 22.6771 139.052 20.9678 139.061 18.8182C139.052 17.0568 139.52 15.518 140.467 14.2017C141.424 12.8854 142.735 11.858 144.402 11.1193C146.069 10.3807 147.963 10.0114 150.084 10.0114C152.243 10.0114 154.127 10.3807 155.737 11.1193C157.357 11.858 158.616 12.8854 159.516 14.2017C160.415 15.518 160.879 17.0426 160.908 18.7756H155.013ZM165.442 39.5V10.4091H185.045V15.4801H171.593V22.4119H184.036V27.483H171.593V34.429H185.102V39.5H165.442ZM189.935 39.5V10.4091H196.085V34.429H208.557V39.5H189.935ZM221.888 39.5V10.4091H228.038V22.4119H240.524V10.4091H246.661V39.5H240.524V27.483H228.038V39.5H221.888ZM256.746 39.5H250.155L260.197 10.4091H268.124L278.152 39.5H271.561L264.274 17.0568H264.047L256.746 39.5ZM256.334 28.0653H271.902V32.8665H256.334V28.0653ZM281.653 10.4091H289.239L297.25 29.9545H297.591L305.602 10.4091H313.188V39.5H307.222V20.5653H306.98L299.452 39.358H295.389L287.861 20.4943H287.619V39.5H281.653V10.4091ZM344.988 24.9545C344.988 28.1269 344.387 30.8258 343.184 33.0511C341.991 35.2765 340.362 36.9763 338.298 38.1506C336.243 39.3153 333.932 39.8977 331.366 39.8977C328.781 39.8977 326.46 39.3106 324.406 38.1364C322.351 36.9621 320.727 35.2623 319.533 33.0369C318.34 30.8116 317.744 28.1174 317.744 24.9545C317.744 21.7822 318.34 19.0833 319.533 16.858C320.727 14.6326 322.351 12.9375 324.406 11.7727C326.46 10.5985 328.781 10.0114 331.366 10.0114C333.932 10.0114 336.243 10.5985 338.298 11.7727C340.362 12.9375 341.991 14.6326 343.184 16.858C344.387 19.0833 344.988 21.7822 344.988 24.9545ZM338.752 24.9545C338.752 22.8996 338.444 21.1667 337.829 19.7557C337.223 18.3447 336.366 17.2746 335.258 16.5455C334.15 15.8163 332.853 15.4517 331.366 15.4517C329.879 15.4517 328.582 15.8163 327.474 16.5455C326.366 17.2746 325.504 18.3447 324.888 19.7557C324.282 21.1667 323.979 22.8996 323.979 24.9545C323.979 27.0095 324.282 28.7424 324.888 30.1534C325.504 31.5644 326.366 32.6345 327.474 33.3636C328.582 34.0928 329.879 34.4574 331.366 34.4574C332.853 34.4574 334.15 34.0928 335.258 33.3636C336.366 32.6345 337.223 31.5644 337.829 30.1534C338.444 28.7424 338.752 27.0095 338.752 24.9545ZM367.513 10.4091H373.663V29.3011C373.663 31.4223 373.157 33.2784 372.143 34.8693C371.14 36.4602 369.733 37.7008 367.925 38.5909C366.116 39.4716 364.009 39.9119 361.604 39.9119C359.189 39.9119 357.077 39.4716 355.268 38.5909C353.46 37.7008 352.054 36.4602 351.05 34.8693C350.046 33.2784 349.544 31.4223 349.544 29.3011V10.4091H355.695V28.7756C355.695 29.8835 355.936 30.8684 356.419 31.7301C356.911 32.5919 357.603 33.2689 358.493 33.7614C359.383 34.2538 360.42 34.5 361.604 34.5C362.797 34.5 363.834 34.2538 364.714 33.7614C365.605 33.2689 366.291 32.5919 366.774 31.7301C367.267 30.8684 367.513 29.8835 367.513 28.7756V10.4091ZM389.036 39.5H378.724V10.4091H389.121C392.048 10.4091 394.567 10.9915 396.678 12.1562C398.79 13.3116 400.414 14.9735 401.55 17.142C402.696 19.3106 403.269 21.9053 403.269 24.9261C403.269 27.9564 402.696 30.5606 401.55 32.7386C400.414 34.9167 398.781 36.5881 396.65 37.7528C394.529 38.9176 391.991 39.5 389.036 39.5ZM384.874 34.2301H388.781C390.599 34.2301 392.128 33.9081 393.369 33.2642C394.619 32.6108 395.556 31.6023 396.181 30.2386C396.816 28.8655 397.133 27.0947 397.133 24.9261C397.133 22.7765 396.816 21.0199 396.181 19.6562C395.556 18.2926 394.623 17.2888 393.383 16.6449C392.142 16.0009 390.613 15.679 388.795 15.679H384.874V34.2301ZM418.479 13.5341V10.4091H440.297V13.5341H431.149V39.5H427.626V13.5341H418.479ZM445.734 39.5V10.4091H455.563C457.836 10.4091 459.701 10.7973 461.16 11.5739C462.618 12.3409 463.698 13.3968 464.398 14.7415C465.099 16.0862 465.45 17.6155 465.45 19.3295C465.45 21.0436 465.099 22.5634 464.398 23.8892C463.698 25.215 462.623 26.2566 461.174 27.0142C459.725 27.7623 457.874 28.1364 455.62 28.1364H447.665V24.9545H455.506C457.059 24.9545 458.309 24.7273 459.256 24.2727C460.213 23.8182 460.904 23.1742 461.33 22.3409C461.766 21.4981 461.984 20.4943 461.984 19.3295C461.984 18.1648 461.766 17.1468 461.33 16.2756C460.895 15.4044 460.199 14.732 459.242 14.2585C458.286 13.7756 457.022 13.5341 455.45 13.5341H449.256V39.5H445.734ZM459.427 26.4318L466.586 39.5H462.495L455.45 26.4318H459.427ZM472.513 39.5H468.82L479.501 10.4091H483.138L493.82 39.5H490.126L481.433 15.0114H481.206L472.513 39.5ZM473.876 28.1364H488.763V31.2614H473.876V28.1364ZM507.328 39.5H498.351V10.4091H507.726C510.548 10.4091 512.963 10.9915 514.97 12.1562C516.978 13.3116 518.517 14.9735 519.587 17.142C520.657 19.3011 521.192 21.8864 521.192 24.8977C521.192 27.928 520.652 30.5369 519.572 32.7244C518.493 34.9025 516.921 36.5786 514.857 37.7528C512.792 38.9176 510.283 39.5 507.328 39.5ZM501.874 36.375H507.101C509.506 36.375 511.5 35.911 513.081 34.983C514.662 34.0549 515.841 32.7339 516.618 31.0199C517.394 29.3059 517.783 27.2652 517.783 24.8977C517.783 22.5492 517.399 20.5275 516.632 18.8324C515.865 17.1278 514.719 15.821 513.195 14.9119C511.67 13.9934 509.771 13.5341 507.499 13.5341H501.874V36.375ZM530.624 10.4091V39.5H527.101V10.4091H530.624ZM560.755 10.4091V39.5H557.346L541.494 16.6591H541.21V39.5H537.687V10.4091H541.096L557.005 33.3068H557.289V10.4091H560.755ZM587.69 19.5C587.378 18.5436 586.966 17.6866 586.455 16.929C585.953 16.1619 585.351 15.5085 584.651 14.9688C583.959 14.429 583.173 14.017 582.293 13.733C581.412 13.4489 580.446 13.3068 579.395 13.3068C577.671 13.3068 576.104 13.7519 574.693 14.642C573.282 15.5322 572.16 16.8438 571.327 18.5767C570.493 20.3097 570.077 22.4356 570.077 24.9545C570.077 27.4735 570.498 29.5994 571.341 31.3324C572.184 33.0653 573.325 34.3769 574.764 35.267C576.204 36.1572 577.823 36.6023 579.622 36.6023C581.289 36.6023 582.757 36.2472 584.026 35.5369C585.304 34.8172 586.298 33.804 587.009 32.4972C587.728 31.1809 588.088 29.6326 588.088 27.8523L589.168 28.0795H580.418V24.9545H591.497V28.0795C591.497 30.4754 590.986 32.5587 589.963 34.3295C588.95 36.1004 587.548 37.4735 585.759 38.4489C583.978 39.4148 581.933 39.8977 579.622 39.8977C577.046 39.8977 574.783 39.2917 572.832 38.0795C570.891 36.8674 569.376 35.1439 568.287 32.9091C567.207 30.6742 566.668 28.0227 566.668 24.9545C566.668 22.6534 566.975 20.5843 567.591 18.7472C568.216 16.9006 569.097 15.3286 570.233 14.0312C571.369 12.7339 572.714 11.7396 574.267 11.0483C575.82 10.357 577.529 10.0114 579.395 10.0114C580.929 10.0114 582.359 10.2434 583.685 10.7074C585.02 11.1619 586.208 11.8106 587.25 12.6534C588.301 13.4867 589.177 14.4858 589.878 15.6506C590.579 16.8059 591.062 18.089 591.327 19.5H587.69ZM608.781 39.5V10.4091H626.337V13.5341H612.303V23.3636H625.428V26.4886H612.303V36.375H626.565V39.5H608.781ZM648.596 17.6818C648.425 16.2424 647.734 15.125 646.522 14.3295C645.31 13.5341 643.823 13.1364 642.062 13.1364C640.774 13.1364 639.647 13.3447 638.681 13.7614C637.725 14.178 636.977 14.7509 636.437 15.4801C635.906 16.2093 635.641 17.0379 635.641 17.9659C635.641 18.7424 635.826 19.41 636.195 19.9688C636.574 20.518 637.057 20.9773 637.644 21.3466C638.231 21.7064 638.847 22.0047 639.491 22.2415C640.135 22.4687 640.727 22.6534 641.266 22.7955L644.221 23.5909C644.978 23.7898 645.821 24.0644 646.749 24.4148C647.687 24.7652 648.582 25.2434 649.434 25.8494C650.296 26.446 651.006 27.2131 651.565 28.1506C652.123 29.0881 652.403 30.2386 652.403 31.6023C652.403 33.1742 651.991 34.5947 651.167 35.8636C650.353 37.1326 649.159 38.1411 647.587 38.8892C646.025 39.6373 644.126 40.0114 641.891 40.0114C639.808 40.0114 638.004 39.6752 636.479 39.0028C634.964 38.3305 633.771 37.393 632.9 36.1903C632.038 34.9877 631.55 33.5909 631.437 32H635.073C635.168 33.0985 635.537 34.0076 636.181 34.7273C636.835 35.4375 637.658 35.9678 638.653 36.3182C639.656 36.6591 640.736 36.8295 641.891 36.8295C643.236 36.8295 644.443 36.6117 645.513 36.1761C646.584 35.7311 647.431 35.1155 648.056 34.3295C648.681 33.5341 648.994 32.6061 648.994 31.5455C648.994 30.5795 648.724 29.7936 648.184 29.1875C647.644 28.5814 646.934 28.089 646.053 27.7102C645.173 27.3314 644.221 27 643.198 26.7159L639.619 25.6932C637.346 25.0398 635.547 24.107 634.221 22.8949C632.895 21.6828 632.232 20.0966 632.232 18.1364C632.232 16.5076 632.673 15.0871 633.553 13.875C634.443 12.6534 635.637 11.7064 637.133 11.0341C638.638 10.3523 640.319 10.0114 642.175 10.0114C644.05 10.0114 645.717 10.3475 647.175 11.0199C648.634 11.6828 649.789 12.5919 650.641 13.7472C651.503 14.9025 651.958 16.214 652.005 17.6818H648.596ZM656.604 13.5341V10.4091H678.422V13.5341H669.274V39.5H665.751V13.5341H656.604Z" fill="black"/>
</g>
<defs>
<linearGradient id="paint0_linear_2_178" x1="10" y1="25" x2="29.3486" y2="25" gradientUnits="userSpaceOnUse">
<stop stop-color="#659CE6"/>
<stop offset="1" stop-color="#005998"/>
</linearGradient>
<linearGradient id="paint1_linear_2_178" x1="26.211" y1="25" x2="67" y2="25.5229" gradientUnits="userSpaceOnUse">
<stop stop-color="#83E8EB"/>
<stop offset="1" stop-color="#28ACC1"/>
</linearGradient>
<clipPath id="clip0_2_178">
<rect width="698" height="50" fill="white"/>
</clipPath>
</defs>
</svg>
