<svg width="283" height="232" viewBox="0 0 283 232" fill="none" xmlns="http://www.w3.org/2000/svg">
<path d="M187 94L148.5 160.684L71.5 160.684L33 94L71.5 27.316L148.5 27.316L187 94Z" fill="url(#paint0_linear_1_109)"/>
<path d="M251 94L212.5 160.684L135.5 160.684L97 94L135.5 27.316L212.5 27.316L251 94Z" fill="url(#paint1_linear_1_109)"/>
<mask id="mask0_1_109" style="mask-type:alpha" maskUnits="userSpaceOnUse" x="67" y="27" width="150" height="134">
<rect x="67" y="27" width="150" height="14" fill="#D9D9D9"/>
<rect x="67" y="52" width="150" height="13" fill="#D9D9D9"/>
<rect x="67" y="76" width="150" height="14" fill="#D9D9D9"/>
<rect x="67" y="101" width="150" height="13" fill="#D9D9D9"/>
<rect x="67" y="125" width="150" height="14" fill="#D9D9D9"/>
<rect x="67" y="147" width="150" height="14" fill="#D9D9D9"/>
</mask>
<g mask="url(#mask0_1_109)">
<circle cx="145" cy="94" r="67" fill="#111230"/>
</g>
<path d="M77.2017 205V175.909H89.3324C91.5104 175.909 93.3333 176.217 94.8011 176.832C96.2784 177.448 97.3864 178.31 98.125 179.418C98.8731 180.526 99.2472 181.809 99.2472 183.267C99.2472 184.375 99.0152 185.365 98.5511 186.236C98.0871 187.098 97.4479 187.812 96.6335 188.381C95.8191 188.949 94.8769 189.347 93.8068 189.574V189.858C94.9811 189.915 96.0653 190.232 97.0597 190.81C98.0634 191.387 98.8684 192.192 99.4744 193.224C100.08 194.247 100.384 195.459 100.384 196.861C100.384 198.423 99.9858 199.82 99.1903 201.051C98.3949 202.273 97.2443 203.239 95.7386 203.949C94.233 204.65 92.4053 205 90.2557 205H77.2017ZM84.233 199.332H88.5795C90.1042 199.332 91.2263 199.044 91.946 198.466C92.6752 197.888 93.0398 197.083 93.0398 196.051C93.0398 195.303 92.8646 194.659 92.5142 194.119C92.1638 193.57 91.6667 193.149 91.0227 192.855C90.3788 192.552 89.607 192.401 88.7074 192.401H84.233V199.332ZM84.233 187.869H88.125C88.892 187.869 89.5739 187.741 90.1705 187.486C90.767 187.23 91.2311 186.861 91.5625 186.378C91.9034 185.895 92.0739 185.312 92.0739 184.631C92.0739 183.655 91.7282 182.888 91.0369 182.33C90.3456 181.771 89.4129 181.491 88.2386 181.491H84.233V187.869ZM111.764 205V175.909H118.795V187.585H130.259V175.909H137.276V205H130.259V193.31H118.795V205H111.764ZM148.734 181.619V175.909H173.322V181.619H164.501V205H157.57V181.619H148.734ZM184.756 205V175.909H205.04V181.619H191.788V187.585H204.004V193.31H191.788V199.29H205.04V205H184.756Z" fill="#FBFBFB"/>
<defs>
<linearGradient id="paint0_linear_1_109" x1="33" y1="94" x2="107" y2="94" gradientUnits="userSpaceOnUse">
<stop stop-color="#659CE6"/>
<stop offset="1" stop-color="#005998"/>
</linearGradient>
<linearGradient id="paint1_linear_1_109" x1="95" y1="94" x2="251" y2="96" gradientUnits="userSpaceOnUse">
<stop stop-color="#83E8EB"/>
<stop offset="1" stop-color="#28ACC1"/>
</linearGradient>
</defs>
</svg>
